<svg xmlns="http://www.w3.org/2000/svg" viewBox="0 0 1600 900">
  <defs>
    <linearGradient id="bg" x1="0" y1="0" x2="1" y2="1">
      <stop offset="0%" stop-color="#0f2f5f" />
      <stop offset="100%" stop-color="#1d4f91" />
    </linearGradient>
  </defs>
  <rect width="1600" height="900" fill="url(#bg)" />
  <circle cx="220" cy="140" r="180" fill="#ffffff14" />
  <circle cx="1380" cy="120" r="220" fill="#ffffff10" />
  <circle cx="1320" cy="780" r="240" fill="#ffffff10" />
  <rect x="140" y="580" width="1320" height="180" rx="24" fill="#ffffff1c" />
  <rect x="200" y="520" width="330" height="40" rx="12" fill="#ffffff2b" />
  <rect x="560" y="520" width="270" height="40" rx="12" fill="#ffffff21" />
  <rect x="860" y="520" width="300" height="40" rx="12" fill="#ffffff24" />
  <rect x="1190" y="520" width="210" height="40" rx="12" fill="#ffffff1c" />
  <rect x="240" y="640" width="220" height="24" rx="10" fill="#ffffff3b" />
  <rect x="240" y="680" width="420" height="20" rx="10" fill="#ffffff2a" />
  <rect x="760" y="640" width="220" height="24" rx="10" fill="#ffffff3b" />
  <rect x="760" y="680" width="420" height="20" rx="10" fill="#ffffff2a" />
</svg>
