<svg xmlns="http://www.w3.org/2000/svg" viewBox="0 0 1600 900">
  <defs>
    <linearGradient id="bg" x1="0" y1="0" x2="1" y2="1">
      <stop offset="0%" stop-color="#8a3f0f" />
      <stop offset="100%" stop-color="#d46a1f" />
    </linearGradient>
  </defs>
  <rect width="1600" height="900" fill="url(#bg)" />
  <circle cx="220" cy="760" r="190" fill="#ffffff14" />
  <circle cx="1380" cy="180" r="210" fill="#ffffff10" />
  <rect x="120" y="150" width="1360" height="580" rx="34" fill="#ffffff14" />
  <rect x="220" y="250" width="360" height="240" rx="20" fill="#ffffff1c" />
  <rect x="620" y="250" width="360" height="240" rx="20" fill="#ffffff1c" />
  <rect x="1020" y="250" width="360" height="240" rx="20" fill="#ffffff1c" />
  <rect x="250" y="540" width="300" height="26" rx="10" fill="#ffffff35" />
  <rect x="650" y="540" width="300" height="26" rx="10" fill="#ffffff35" />
  <rect x="1050" y="540" width="300" height="26" rx="10" fill="#ffffff35" />
  <rect x="250" y="585" width="220" height="20" rx="10" fill="#ffffff27" />
  <rect x="650" y="585" width="220" height="20" rx="10" fill="#ffffff27" />
  <rect x="1050" y="585" width="220" height="20" rx="10" fill="#ffffff27" />
</svg>
